# xmcd
#
# Track frame offsets: 
#        150
#        15066
#        29135
#        42421
#        56831
#        65684
#        75963
#        88637
#        100681
#        110627
#        120507
#
# Disc length: 1820 seconds
#
# Revision: 3
# Processed by: cddbd v1.4PL0 Copyright (c) Steve Scherf et al.
# Submitted via: ExactAudioCopy v0.90b4
#
DISCID=85071a0b
DTITLE=John Anderson - Somehow, Someway, Someday
DYEAR=1999
DGENRE=Country
TTITLE0=Country Comfort
TTITLE1=I'm Just Here To Love You
TTITLE2=What Did I Promise You Last Night
TTITLE3=Somehow, Someway, Someday
TTITLE4=If Love Could Find Us Now
TTITLE5=If There Were No Memories
TTITLE6=Stop In Nevada
TTITLE7=Just At Dawn
TTITLE8=Swoop Down Sweet Jesus
TTITLE9=Mississippi Rainstorm
TTITLE10=Bad Morning For Leaving
EXTD=YEAR: 1999 ID3G:   2
EXTT0=
EXTT1=
EXTT2=
EXTT3=
EXTT4=
EXTT5=
EXTT6=
EXTT7=
EXTT8=
EXTT9=
EXTT10=
PLAYORDER=
